<svg xmlns="http://www.w3.org/2000/svg" width="636" height="302" viewBox="0 0 636 302" shape-rendering="crispEdges" font-family="ui-monospace, monospace"><rect width="636" height="302" fill="#12181c"/><text x="22" y="34" fill="#c1c0af" font-size="12" letter-spacing="1.5">LOTUS · 11×9 · CLOSED BUD → FULL BLOOM</text><rect x="12" y="46" width="612" height="79" fill="#234151"/><text x="22" y="40" fill="#f2b84b" font-size="11" letter-spacing="1.5">DAY</text><rect x="57" y="61" width="7" height="7" fill="#95824e"/><rect x="50" y="68" width="7" height="7" fill="#9ca299"/><rect x="57" y="68" width="7" height="7" fill="#95824e"/><rect x="64" y="68" width="7" height="7" fill="#9ca299"/><rect x="43" y="75" width="7" height="7" fill="#9ca299"/><rect x="50" y="75" width="7" height="7" fill="#9ca299"/><rect x="57" y="75" width="7" height="7" fill="#95824e"/><rect x="64" y="75" width="7" height="7" fill="#9ca299"/><rect x="71" y="75" width="7" height="7" fill="#9ca299"/><rect x="43" y="82" width="7" height="7" fill="#9ca299"/><rect x="50" y="82" width="7" height="7" fill="#9ca299"/><rect x="57" y="82" width="7" height="7" fill="#95824e"/><rect x="64" y="82" width="7" height="7" fill="#9ca299"/><rect x="71" y="82" width="7" height="7" fill="#9ca299"/><rect x="50" y="89" width="7" height="7" fill="#9ca299"/><rect x="57" y="89" width="7" height="7" fill="#95824e"/><rect x="64" y="89" width="7" height="7" fill="#9ca299"/><rect x="50" y="96" width="7" height="7" fill="#5b8586"/><rect x="57" y="96" width="7" height="7" fill="#5b8586"/><rect x="64" y="96" width="7" height="7" fill="#5b8586"/><rect x="36" y="103" width="7" height="7" fill="#5b8586"/><rect x="43" y="103" width="7" height="7" fill="#5b8586"/><rect x="50" y="103" width="7" height="7" fill="#5b8586"/><rect x="57" y="103" width="7" height="7" fill="#5b8586"/><rect x="64" y="103" width="7" height="7" fill="#5b8586"/><rect x="71" y="103" width="7" height="7" fill="#5b8586"/><rect x="78" y="103" width="7" height="7" fill="#5b8586"/><rect x="43" y="110" width="7" height="7" fill="#3b696a"/><rect x="50" y="110" width="7" height="7" fill="#3b696a"/><rect x="57" y="110" width="7" height="7" fill="#3b696a"/><rect x="64" y="110" width="7" height="7" fill="#3b696a"/><rect x="71" y="110" width="7" height="7" fill="#3b696a"/><rect x="153" y="61" width="7" height="7" fill="#a78d4d"/><rect x="167" y="61" width="7" height="7" fill="#a78d4d"/><rect x="153" y="68" width="7" height="7" fill="#b0b2a5"/><rect x="160" y="68" width="7" height="7" fill="#a78d4d"/><rect x="167" y="68" width="7" height="7" fill="#b0b2a5"/><rect x="146" y="75" width="7" height="7" fill="#b0b2a5"/><rect x="153" y="75" width="7" height="7" fill="#b0b2a5"/><rect x="160" y="75" width="7" height="7" fill="#a78d4d"/><rect x="167" y="75" width="7" height="7" fill="#b0b2a5"/><rect x="174" y="75" width="7" height="7" fill="#b0b2a5"/><rect x="139" y="82" width="7" height="7" fill="#b0b2a5"/><rect x="146" y="82" width="7" height="7" fill="#b0b2a5"/><rect x="153" y="82" width="7" height="7" fill="#b0b2a5"/><rect x="160" y="82" width="7" height="7" fill="#a78d4d"/><rect x="167" y="82" width="7" height="7" fill="#b0b2a5"/><rect x="174" y="82" width="7" height="7" fill="#b0b2a5"/><rect x="181" y="82" width="7" height="7" fill="#b0b2a5"/><rect x="146" y="89" width="7" height="7" fill="#b0b2a5"/><rect x="153" y="89" width="7" height="7" fill="#b0b2a5"/><rect x="160" y="89" width="7" height="7" fill="#a78d4d"/><rect x="167" y="89" width="7" height="7" fill="#b0b2a5"/><rect x="174" y="89" width="7" height="7" fill="#b0b2a5"/><rect x="153" y="96" width="7" height="7" fill="#64908e"/><rect x="160" y="96" width="7" height="7" fill="#64908e"/><rect x="167" y="96" width="7" height="7" fill="#64908e"/><rect x="139" y="103" width="7" height="7" fill="#64908e"/><rect x="146" y="103" width="7" height="7" fill="#64908e"/><rect x="153" y="103" width="7" height="7" fill="#64908e"/><rect x="160" y="103" width="7" height="7" fill="#64908e"/><rect x="167" y="103" width="7" height="7" fill="#64908e"/><rect x="174" y="103" width="7" height="7" fill="#64908e"/><rect x="181" y="103" width="7" height="7" fill="#64908e"/><rect x="146" y="110" width="7" height="7" fill="#3f706e"/><rect x="153" y="110" width="7" height="7" fill="#3f706e"/><rect x="160" y="110" width="7" height="7" fill="#3f706e"/><rect x="167" y="110" width="7" height="7" fill="#3f706e"/><rect x="174" y="110" width="7" height="7" fill="#3f706e"/><rect x="263" y="54" width="7" height="7" fill="#ba984d"/><rect x="249" y="61" width="7" height="7" fill="#ba984d"/><rect x="263" y="61" width="7" height="7" fill="#c4c2b1"/><rect x="277" y="61" width="7" height="7" fill="#ba984d"/><rect x="249" y="68" width="7" height="7" fill="#c4c2b1"/><rect x="256" y="68" width="7" height="7" fill="#c4c2b1"/><rect x="263" y="68" width="7" height="7" fill="#ba984d"/><rect x="270" y="68" width="7" height="7" fill="#c4c2b1"/><rect x="277" y="68" width="7" height="7" fill="#c4c2b1"/><rect x="242" y="75" width="7" height="7" fill="#c4c2b1"/><rect x="249" y="75" width="7" height="7" fill="#c4c2b1"/><rect x="256" y="75" width="7" height="7" fill="#c4c2b1"/><rect x="263" y="75" width="7" height="7" fill="#ba984d"/><rect x="270" y="75" width="7" height="7" fill="#c4c2b1"/><rect x="277" y="75" width="7" height="7" fill="#c4c2b1"/><rect x="284" y="75" width="7" height="7" fill="#c4c2b1"/><rect x="242" y="82" width="7" height="7" fill="#c4c2b1"/><rect x="249" y="82" width="7" height="7" fill="#c4c2b1"/><rect x="256" y="82" width="7" height="7" fill="#c4c2b1"/><rect x="263" y="82" width="7" height="7" fill="#ba984d"/><rect x="270" y="82" width="7" height="7" fill="#c4c2b1"/><rect x="277" y="82" width="7" height="7" fill="#c4c2b1"/><rect x="284" y="82" width="7" height="7" fill="#c4c2b1"/><rect x="249" y="89" width="7" height="7" fill="#c4c2b1"/><rect x="256" y="89" width="7" height="7" fill="#c4c2b1"/><rect x="263" y="89" width="7" height="7" fill="#a88138"/><rect x="270" y="89" width="7" height="7" fill="#c4c2b1"/><rect x="277" y="89" width="7" height="7" fill="#c4c2b1"/><rect x="256" y="96" width="7" height="7" fill="#6d9c97"/><rect x="263" y="96" width="7" height="7" fill="#6d9c97"/><rect x="270" y="96" width="7" height="7" fill="#6d9c97"/><rect x="242" y="103" width="7" height="7" fill="#6d9c97"/><rect x="249" y="103" width="7" height="7" fill="#6d9c97"/><rect x="256" y="103" width="7" height="7" fill="#6d9c97"/><rect x="263" y="103" width="7" height="7" fill="#6d9c97"/><rect x="270" y="103" width="7" height="7" fill="#6d9c97"/><rect x="277" y="103" width="7" height="7" fill="#6d9c97"/><rect x="284" y="103" width="7" height="7" fill="#6d9c97"/><rect x="249" y="110" width="7" height="7" fill="#427672"/><rect x="256" y="110" width="7" height="7" fill="#427672"/><rect x="263" y="110" width="7" height="7" fill="#427672"/><rect x="270" y="110" width="7" height="7" fill="#427672"/><rect x="277" y="110" width="7" height="7" fill="#427672"/><rect x="366" y="54" width="7" height="7" fill="#cda34c"/><rect x="352" y="61" width="7" height="7" fill="#cda34c"/><rect x="366" y="61" width="7" height="7" fill="#d7d2bc"/><rect x="380" y="61" width="7" height="7" fill="#cda34c"/><rect x="345" y="68" width="7" height="7" fill="#cda34c"/><rect x="352" y="68" width="7" height="7" fill="#d7d2bc"/><rect x="359" y="68" width="7" height="7" fill="#d7d2bc"/><rect x="366" y="68" width="7" height="7" fill="#d7d2bc"/><rect x="373" y="68" width="7" height="7" fill="#d7d2bc"/><rect x="380" y="68" width="7" height="7" fill="#d7d2bc"/><rect x="387" y="68" width="7" height="7" fill="#cda34c"/><rect x="345" y="75" width="7" height="7" fill="#d7d2bc"/><rect x="352" y="75" width="7" height="7" fill="#d7d2bc"/><rect x="359" y="75" width="7" height="7" fill="#d7d2bc"/><rect x="366" y="75" width="7" height="7" fill="#cda34c"/><rect x="373" y="75" width="7" height="7" fill="#d7d2bc"/><rect x="380" y="75" width="7" height="7" fill="#d7d2bc"/><rect x="387" y="75" width="7" height="7" fill="#d7d2bc"/><rect x="338" y="82" width="7" height="7" fill="#d7d2bc"/><rect x="345" y="82" width="7" height="7" fill="#d7d2bc"/><rect x="352" y="82" width="7" height="7" fill="#d7d2bc"/><rect x="359" y="82" width="7" height="7" fill="#b88835"/><rect x="366" y="82" width="7" height="7" fill="#b88835"/><rect x="373" y="82" width="7" height="7" fill="#b88835"/><rect x="380" y="82" width="7" height="7" fill="#d7d2bc"/><rect x="387" y="82" width="7" height="7" fill="#d7d2bc"/><rect x="394" y="82" width="7" height="7" fill="#d7d2bc"/><rect x="345" y="89" width="7" height="7" fill="#d7d2bc"/><rect x="352" y="89" width="7" height="7" fill="#d7d2bc"/><rect x="359" y="89" width="7" height="7" fill="#b88835"/><rect x="366" y="89" width="7" height="7" fill="#b88835"/><rect x="373" y="89" width="7" height="7" fill="#b88835"/><rect x="380" y="89" width="7" height="7" fill="#d7d2bc"/><rect x="387" y="89" width="7" height="7" fill="#d7d2bc"/><rect x="359" y="96" width="7" height="7" fill="#76a7a0"/><rect x="366" y="96" width="7" height="7" fill="#76a7a0"/><rect x="373" y="96" width="7" height="7" fill="#76a7a0"/><rect x="345" y="103" width="7" height="7" fill="#76a7a0"/><rect x="352" y="103" width="7" height="7" fill="#76a7a0"/><rect x="359" y="103" width="7" height="7" fill="#76a7a0"/><rect x="366" y="103" width="7" height="7" fill="#76a7a0"/><rect x="373" y="103" width="7" height="7" fill="#76a7a0"/><rect x="380" y="103" width="7" height="7" fill="#76a7a0"/><rect x="387" y="103" width="7" height="7" fill="#76a7a0"/><rect x="352" y="110" width="7" height="7" fill="#467d76"/><rect x="359" y="110" width="7" height="7" fill="#467d76"/><rect x="366" y="110" width="7" height="7" fill="#467d76"/><rect x="373" y="110" width="7" height="7" fill="#467d76"/><rect x="380" y="110" width="7" height="7" fill="#467d76"/><rect x="469" y="54" width="7" height="7" fill="#dfad4c"/><rect x="455" y="61" width="7" height="7" fill="#dfad4c"/><rect x="469" y="61" width="7" height="7" fill="#ebe2c8"/><rect x="483" y="61" width="7" height="7" fill="#dfad4c"/><rect x="441" y="68" width="7" height="7" fill="#dfad4c"/><rect x="455" y="68" width="7" height="7" fill="#ebe2c8"/><rect x="462" y="68" width="7" height="7" fill="#ebe2c8"/><rect x="469" y="68" width="7" height="7" fill="#dfad4c"/><rect x="476" y="68" width="7" height="7" fill="#ebe2c8"/><rect x="483" y="68" width="7" height="7" fill="#ebe2c8"/><rect x="497" y="68" width="7" height="7" fill="#dfad4c"/><rect x="441" y="75" width="7" height="7" fill="#dfad4c"/><rect x="448" y="75" width="7" height="7" fill="#ebe2c8"/><rect x="455" y="75" width="7" height="7" fill="#ebe2c8"/><rect x="462" y="75" width="7" height="7" fill="#ebe2c8"/><rect x="469" y="75" width="7" height="7" fill="#dfad4c"/><rect x="476" y="75" width="7" height="7" fill="#ebe2c8"/><rect x="483" y="75" width="7" height="7" fill="#ebe2c8"/><rect x="490" y="75" width="7" height="7" fill="#ebe2c8"/><rect x="497" y="75" width="7" height="7" fill="#dfad4c"/><rect x="441" y="82" width="7" height="7" fill="#ebe2c8"/><rect x="448" y="82" width="7" height="7" fill="#ebe2c8"/><rect x="455" y="82" width="7" height="7" fill="#ebe2c8"/><rect x="462" y="82" width="7" height="7" fill="#c99032"/><rect x="469" y="82" width="7" height="7" fill="#c99032"/><rect x="476" y="82" width="7" height="7" fill="#c99032"/><rect x="483" y="82" width="7" height="7" fill="#ebe2c8"/><rect x="490" y="82" width="7" height="7" fill="#ebe2c8"/><rect x="497" y="82" width="7" height="7" fill="#ebe2c8"/><rect x="448" y="89" width="7" height="7" fill="#ebe2c8"/><rect x="455" y="89" width="7" height="7" fill="#ebe2c8"/><rect x="462" y="89" width="7" height="7" fill="#c99032"/><rect x="469" y="89" width="7" height="7" fill="#c99032"/><rect x="476" y="89" width="7" height="7" fill="#c99032"/><rect x="483" y="89" width="7" height="7" fill="#ebe2c8"/><rect x="490" y="89" width="7" height="7" fill="#ebe2c8"/><rect x="462" y="96" width="7" height="7" fill="#7fb2a8"/><rect x="469" y="96" width="7" height="7" fill="#7fb2a8"/><rect x="476" y="96" width="7" height="7" fill="#7fb2a8"/><rect x="448" y="103" width="7" height="7" fill="#7fb2a8"/><rect x="455" y="103" width="7" height="7" fill="#7fb2a8"/><rect x="462" y="103" width="7" height="7" fill="#7fb2a8"/><rect x="469" y="103" width="7" height="7" fill="#7fb2a8"/><rect x="476" y="103" width="7" height="7" fill="#7fb2a8"/><rect x="483" y="103" width="7" height="7" fill="#7fb2a8"/><rect x="490" y="103" width="7" height="7" fill="#7fb2a8"/><rect x="455" y="110" width="7" height="7" fill="#4a837a"/><rect x="462" y="110" width="7" height="7" fill="#4a837a"/><rect x="469" y="110" width="7" height="7" fill="#4a837a"/><rect x="476" y="110" width="7" height="7" fill="#4a837a"/><rect x="483" y="110" width="7" height="7" fill="#4a837a"/><rect x="572" y="54" width="7" height="7" fill="#f2b84b"/><rect x="558" y="61" width="7" height="7" fill="#f2b84b"/><rect x="572" y="61" width="7" height="7" fill="#fff2d4"/><rect x="586" y="61" width="7" height="7" fill="#f2b84b"/><rect x="544" y="68" width="7" height="7" fill="#f2b84b"/><rect x="558" y="68" width="7" height="7" fill="#fff2d4"/><rect x="565" y="68" width="7" height="7" fill="#fff2d4"/><rect x="572" y="68" width="7" height="7" fill="#f2b84b"/><rect x="579" y="68" width="7" height="7" fill="#fff2d4"/><rect x="586" y="68" width="7" height="7" fill="#fff2d4"/><rect x="600" y="68" width="7" height="7" fill="#f2b84b"/><rect x="537" y="75" width="7" height="7" fill="#f2b84b"/><rect x="544" y="75" width="7" height="7" fill="#fff2d4"/><rect x="551" y="75" width="7" height="7" fill="#fff2d4"/><rect x="558" y="75" width="7" height="7" fill="#fff2d4"/><rect x="565" y="75" width="7" height="7" fill="#fff2d4"/><rect x="572" y="75" width="7" height="7" fill="#f2b84b"/><rect x="579" y="75" width="7" height="7" fill="#fff2d4"/><rect x="586" y="75" width="7" height="7" fill="#fff2d4"/><rect x="593" y="75" width="7" height="7" fill="#fff2d4"/><rect x="600" y="75" width="7" height="7" fill="#fff2d4"/><rect x="607" y="75" width="7" height="7" fill="#f2b84b"/><rect x="537" y="82" width="7" height="7" fill="#f2b84b"/><rect x="544" y="82" width="7" height="7" fill="#fff2d4"/><rect x="551" y="82" width="7" height="7" fill="#fff2d4"/><rect x="558" y="82" width="7" height="7" fill="#fff2d4"/><rect x="565" y="82" width="7" height="7" fill="#d9982f"/><rect x="572" y="82" width="7" height="7" fill="#d9982f"/><rect x="579" y="82" width="7" height="7" fill="#d9982f"/><rect x="586" y="82" width="7" height="7" fill="#fff2d4"/><rect x="593" y="82" width="7" height="7" fill="#fff2d4"/><rect x="600" y="82" width="7" height="7" fill="#fff2d4"/><rect x="607" y="82" width="7" height="7" fill="#f2b84b"/><rect x="544" y="89" width="7" height="7" fill="#fff2d4"/><rect x="551" y="89" width="7" height="7" fill="#fff2d4"/><rect x="558" y="89" width="7" height="7" fill="#fff2d4"/><rect x="565" y="89" width="7" height="7" fill="#d9982f"/><rect x="572" y="89" width="7" height="7" fill="#d9982f"/><rect x="579" y="89" width="7" height="7" fill="#d9982f"/><rect x="586" y="89" width="7" height="7" fill="#fff2d4"/><rect x="593" y="89" width="7" height="7" fill="#fff2d4"/><rect x="600" y="89" width="7" height="7" fill="#fff2d4"/><rect x="565" y="96" width="7" height="7" fill="#88bdb1"/><rect x="572" y="96" width="7" height="7" fill="#88bdb1"/><rect x="579" y="96" width="7" height="7" fill="#88bdb1"/><rect x="551" y="103" width="7" height="7" fill="#88bdb1"/><rect x="558" y="103" width="7" height="7" fill="#88bdb1"/><rect x="565" y="103" width="7" height="7" fill="#88bdb1"/><rect x="572" y="103" width="7" height="7" fill="#88bdb1"/><rect x="579" y="103" width="7" height="7" fill="#88bdb1"/><rect x="586" y="103" width="7" height="7" fill="#88bdb1"/><rect x="593" y="103" width="7" height="7" fill="#88bdb1"/><rect x="558" y="110" width="7" height="7" fill="#4e8a7e"/><rect x="565" y="110" width="7" height="7" fill="#4e8a7e"/><rect x="572" y="110" width="7" height="7" fill="#4e8a7e"/><rect x="579" y="110" width="7" height="7" fill="#4e8a7e"/><rect x="586" y="110" width="7" height="7" fill="#4e8a7e"/><rect x="12" y="153" width="612" height="79" fill="#202b2a"/><text x="22" y="147" fill="#c3a3c0" font-size="11" letter-spacing="1.5">NIGHT</text><rect x="57" y="168" width="7" height="7" fill="#7a6d7d"/><rect x="50" y="175" width="7" height="7" fill="#877e8b"/><rect x="57" y="175" width="7" height="7" fill="#7a6d7d"/><rect x="64" y="175" width="7" height="7" fill="#877e8b"/><rect x="43" y="182" width="7" height="7" fill="#877e8b"/><rect x="50" y="182" width="7" height="7" fill="#877e8b"/><rect x="57" y="182" width="7" height="7" fill="#7a6d7d"/><rect x="64" y="182" width="7" height="7" fill="#877e8b"/><rect x="71" y="182" width="7" height="7" fill="#877e8b"/><rect x="43" y="189" width="7" height="7" fill="#877e8b"/><rect x="50" y="189" width="7" height="7" fill="#877e8b"/><rect x="57" y="189" width="7" height="7" fill="#7a6d7d"/><rect x="64" y="189" width="7" height="7" fill="#877e8b"/><rect x="71" y="189" width="7" height="7" fill="#877e8b"/><rect x="50" y="196" width="7" height="7" fill="#877e8b"/><rect x="57" y="196" width="7" height="7" fill="#7a6d7d"/><rect x="64" y="196" width="7" height="7" fill="#877e8b"/><rect x="50" y="203" width="7" height="7" fill="#3a4a48"/><rect x="57" y="203" width="7" height="7" fill="#3a4a48"/><rect x="64" y="203" width="7" height="7" fill="#3a4a48"/><rect x="36" y="210" width="7" height="7" fill="#3a4a48"/><rect x="43" y="210" width="7" height="7" fill="#3a4a48"/><rect x="50" y="210" width="7" height="7" fill="#3a4a48"/><rect x="57" y="210" width="7" height="7" fill="#3a4a48"/><rect x="64" y="210" width="7" height="7" fill="#3a4a48"/><rect x="71" y="210" width="7" height="7" fill="#3a4a48"/><rect x="78" y="210" width="7" height="7" fill="#3a4a48"/><rect x="43" y="217" width="7" height="7" fill="#2d3b39"/><rect x="50" y="217" width="7" height="7" fill="#2d3b39"/><rect x="57" y="217" width="7" height="7" fill="#2d3b39"/><rect x="64" y="217" width="7" height="7" fill="#2d3b39"/><rect x="71" y="217" width="7" height="7" fill="#2d3b39"/><text x="60.5" y="240" fill="#97a0a0" font-size="10" text-anchor="middle">0</text><rect x="153" y="168" width="7" height="7" fill="#88788a"/><rect x="167" y="168" width="7" height="7" fill="#88788a"/><rect x="153" y="175" width="7" height="7" fill="#988c9b"/><rect x="160" y="175" width="7" height="7" fill="#88788a"/><rect x="167" y="175" width="7" height="7" fill="#988c9b"/><rect x="146" y="182" width="7" height="7" fill="#988c9b"/><rect x="153" y="182" width="7" height="7" fill="#988c9b"/><rect x="160" y="182" width="7" height="7" fill="#88788a"/><rect x="167" y="182" width="7" height="7" fill="#988c9b"/><rect x="174" y="182" width="7" height="7" fill="#988c9b"/><rect x="139" y="189" width="7" height="7" fill="#988c9b"/><rect x="146" y="189" width="7" height="7" fill="#988c9b"/><rect x="153" y="189" width="7" height="7" fill="#988c9b"/><rect x="160" y="189" width="7" height="7" fill="#88788a"/><rect x="167" y="189" width="7" height="7" fill="#988c9b"/><rect x="174" y="189" width="7" height="7" fill="#988c9b"/><rect x="181" y="189" width="7" height="7" fill="#988c9b"/><rect x="146" y="196" width="7" height="7" fill="#988c9b"/><rect x="153" y="196" width="7" height="7" fill="#988c9b"/><rect x="160" y="196" width="7" height="7" fill="#88788a"/><rect x="167" y="196" width="7" height="7" fill="#988c9b"/><rect x="174" y="196" width="7" height="7" fill="#988c9b"/><rect x="153" y="203" width="7" height="7" fill="#3e4f4d"/><rect x="160" y="203" width="7" height="7" fill="#3e4f4d"/><rect x="167" y="203" width="7" height="7" fill="#3e4f4d"/><rect x="139" y="210" width="7" height="7" fill="#3e4f4d"/><rect x="146" y="210" width="7" height="7" fill="#3e4f4d"/><rect x="153" y="210" width="7" height="7" fill="#3e4f4d"/><rect x="160" y="210" width="7" height="7" fill="#3e4f4d"/><rect x="167" y="210" width="7" height="7" fill="#3e4f4d"/><rect x="174" y="210" width="7" height="7" fill="#3e4f4d"/><rect x="181" y="210" width="7" height="7" fill="#3e4f4d"/><rect x="146" y="217" width="7" height="7" fill="#2f3e3c"/><rect x="153" y="217" width="7" height="7" fill="#2f3e3c"/><rect x="160" y="217" width="7" height="7" fill="#2f3e3c"/><rect x="167" y="217" width="7" height="7" fill="#2f3e3c"/><rect x="174" y="217" width="7" height="7" fill="#2f3e3c"/><text x="163.5" y="240" fill="#97a0a0" font-size="10" text-anchor="middle">1</text><rect x="263" y="161" width="7" height="7" fill="#978398"/><rect x="249" y="168" width="7" height="7" fill="#978398"/><rect x="263" y="168" width="7" height="7" fill="#a999aa"/><rect x="277" y="168" width="7" height="7" fill="#978398"/><rect x="249" y="175" width="7" height="7" fill="#a999aa"/><rect x="256" y="175" width="7" height="7" fill="#a999aa"/><rect x="263" y="175" width="7" height="7" fill="#978398"/><rect x="270" y="175" width="7" height="7" fill="#a999aa"/><rect x="277" y="175" width="7" height="7" fill="#a999aa"/><rect x="242" y="182" width="7" height="7" fill="#a999aa"/><rect x="249" y="182" width="7" height="7" fill="#a999aa"/><rect x="256" y="182" width="7" height="7" fill="#a999aa"/><rect x="263" y="182" width="7" height="7" fill="#978398"/><rect x="270" y="182" width="7" height="7" fill="#a999aa"/><rect x="277" y="182" width="7" height="7" fill="#a999aa"/><rect x="284" y="182" width="7" height="7" fill="#a999aa"/><rect x="242" y="189" width="7" height="7" fill="#a999aa"/><rect x="249" y="189" width="7" height="7" fill="#a999aa"/><rect x="256" y="189" width="7" height="7" fill="#a999aa"/><rect x="263" y="189" width="7" height="7" fill="#978398"/><rect x="270" y="189" width="7" height="7" fill="#a999aa"/><rect x="277" y="189" width="7" height="7" fill="#a999aa"/><rect x="284" y="189" width="7" height="7" fill="#a999aa"/><rect x="249" y="196" width="7" height="7" fill="#a999aa"/><rect x="256" y="196" width="7" height="7" fill="#a999aa"/><rect x="263" y="196" width="7" height="7" fill="#a98b57"/><rect x="270" y="196" width="7" height="7" fill="#a999aa"/><rect x="277" y="196" width="7" height="7" fill="#a999aa"/><rect x="256" y="203" width="7" height="7" fill="#425451"/><rect x="263" y="203" width="7" height="7" fill="#425451"/><rect x="270" y="203" width="7" height="7" fill="#425451"/><rect x="242" y="210" width="7" height="7" fill="#425451"/><rect x="249" y="210" width="7" height="7" fill="#425451"/><rect x="256" y="210" width="7" height="7" fill="#425451"/><rect x="263" y="210" width="7" height="7" fill="#425451"/><rect x="270" y="210" width="7" height="7" fill="#425451"/><rect x="277" y="210" width="7" height="7" fill="#425451"/><rect x="284" y="210" width="7" height="7" fill="#425451"/><rect x="249" y="217" width="7" height="7" fill="#32403e"/><rect x="256" y="217" width="7" height="7" fill="#32403e"/><rect x="263" y="217" width="7" height="7" fill="#32403e"/><rect x="270" y="217" width="7" height="7" fill="#32403e"/><rect x="277" y="217" width="7" height="7" fill="#32403e"/><text x="266.5" y="240" fill="#97a0a0" font-size="10" text-anchor="middle">2</text><rect x="366" y="161" width="7" height="7" fill="#a68da5"/><rect x="352" y="168" width="7" height="7" fill="#a68da5"/><rect x="366" y="168" width="7" height="7" fill="#baa7ba"/><rect x="380" y="168" width="7" height="7" fill="#a68da5"/><rect x="345" y="175" width="7" height="7" fill="#a68da5"/><rect x="352" y="175" width="7" height="7" fill="#baa7ba"/><rect x="359" y="175" width="7" height="7" fill="#baa7ba"/><rect x="366" y="175" width="7" height="7" fill="#baa7ba"/><rect x="373" y="175" width="7" height="7" fill="#baa7ba"/><rect x="380" y="175" width="7" height="7" fill="#baa7ba"/><rect x="387" y="175" width="7" height="7" fill="#a68da5"/><rect x="345" y="182" width="7" height="7" fill="#baa7ba"/><rect x="352" y="182" width="7" height="7" fill="#baa7ba"/><rect x="359" y="182" width="7" height="7" fill="#baa7ba"/><rect x="366" y="182" width="7" height="7" fill="#a68da5"/><rect x="373" y="182" width="7" height="7" fill="#baa7ba"/><rect x="380" y="182" width="7" height="7" fill="#baa7ba"/><rect x="387" y="182" width="7" height="7" fill="#baa7ba"/><rect x="338" y="189" width="7" height="7" fill="#baa7ba"/><rect x="345" y="189" width="7" height="7" fill="#baa7ba"/><rect x="352" y="189" width="7" height="7" fill="#baa7ba"/><rect x="359" y="189" width="7" height="7" fill="#ba965d"/><rect x="366" y="189" width="7" height="7" fill="#ba965d"/><rect x="373" y="189" width="7" height="7" fill="#ba965d"/><rect x="380" y="189" width="7" height="7" fill="#baa7ba"/><rect x="387" y="189" width="7" height="7" fill="#baa7ba"/><rect x="394" y="189" width="7" height="7" fill="#baa7ba"/><rect x="345" y="196" width="7" height="7" fill="#baa7ba"/><rect x="352" y="196" width="7" height="7" fill="#baa7ba"/><rect x="359" y="196" width="7" height="7" fill="#ba965d"/><rect x="366" y="196" width="7" height="7" fill="#ba965d"/><rect x="373" y="196" width="7" height="7" fill="#ba965d"/><rect x="380" y="196" width="7" height="7" fill="#baa7ba"/><rect x="387" y="196" width="7" height="7" fill="#baa7ba"/><rect x="359" y="203" width="7" height="7" fill="#475956"/><rect x="366" y="203" width="7" height="7" fill="#475956"/><rect x="373" y="203" width="7" height="7" fill="#475956"/><rect x="345" y="210" width="7" height="7" fill="#475956"/><rect x="352" y="210" width="7" height="7" fill="#475956"/><rect x="359" y="210" width="7" height="7" fill="#475956"/><rect x="366" y="210" width="7" height="7" fill="#475956"/><rect x="373" y="210" width="7" height="7" fill="#475956"/><rect x="380" y="210" width="7" height="7" fill="#475956"/><rect x="387" y="210" width="7" height="7" fill="#475956"/><rect x="352" y="217" width="7" height="7" fill="#344341"/><rect x="359" y="217" width="7" height="7" fill="#344341"/><rect x="366" y="217" width="7" height="7" fill="#344341"/><rect x="373" y="217" width="7" height="7" fill="#344341"/><rect x="380" y="217" width="7" height="7" fill="#344341"/><text x="369.5" y="240" fill="#97a0a0" font-size="10" text-anchor="middle">3</text><rect x="469" y="161" width="7" height="7" fill="#b498b3"/><rect x="455" y="168" width="7" height="7" fill="#b498b3"/><rect x="469" y="168" width="7" height="7" fill="#cbb4ca"/><rect x="483" y="168" width="7" height="7" fill="#b498b3"/><rect x="441" y="175" width="7" height="7" fill="#b498b3"/><rect x="455" y="175" width="7" height="7" fill="#cbb4ca"/><rect x="462" y="175" width="7" height="7" fill="#cbb4ca"/><rect x="469" y="175" width="7" height="7" fill="#b498b3"/><rect x="476" y="175" width="7" height="7" fill="#cbb4ca"/><rect x="483" y="175" width="7" height="7" fill="#cbb4ca"/><rect x="497" y="175" width="7" height="7" fill="#b498b3"/><rect x="441" y="182" width="7" height="7" fill="#b498b3"/><rect x="448" y="182" width="7" height="7" fill="#cbb4ca"/><rect x="455" y="182" width="7" height="7" fill="#cbb4ca"/><rect x="462" y="182" width="7" height="7" fill="#cbb4ca"/><rect x="469" y="182" width="7" height="7" fill="#b498b3"/><rect x="476" y="182" width="7" height="7" fill="#cbb4ca"/><rect x="483" y="182" width="7" height="7" fill="#cbb4ca"/><rect x="490" y="182" width="7" height="7" fill="#cbb4ca"/><rect x="497" y="182" width="7" height="7" fill="#b498b3"/><rect x="441" y="189" width="7" height="7" fill="#cbb4ca"/><rect x="448" y="189" width="7" height="7" fill="#cbb4ca"/><rect x="455" y="189" width="7" height="7" fill="#cbb4ca"/><rect x="462" y="189" width="7" height="7" fill="#cba262"/><rect x="469" y="189" width="7" height="7" fill="#cba262"/><rect x="476" y="189" width="7" height="7" fill="#cba262"/><rect x="483" y="189" width="7" height="7" fill="#cbb4ca"/><rect x="490" y="189" width="7" height="7" fill="#cbb4ca"/><rect x="497" y="189" width="7" height="7" fill="#cbb4ca"/><rect x="448" y="196" width="7" height="7" fill="#cbb4ca"/><rect x="455" y="196" width="7" height="7" fill="#cbb4ca"/><rect x="462" y="196" width="7" height="7" fill="#cba262"/><rect x="469" y="196" width="7" height="7" fill="#cba262"/><rect x="476" y="196" width="7" height="7" fill="#cba262"/><rect x="483" y="196" width="7" height="7" fill="#cbb4ca"/><rect x="490" y="196" width="7" height="7" fill="#cbb4ca"/><rect x="462" y="203" width="7" height="7" fill="#4b5e5b"/><rect x="469" y="203" width="7" height="7" fill="#4b5e5b"/><rect x="476" y="203" width="7" height="7" fill="#4b5e5b"/><rect x="448" y="210" width="7" height="7" fill="#4b5e5b"/><rect x="455" y="210" width="7" height="7" fill="#4b5e5b"/><rect x="462" y="210" width="7" height="7" fill="#4b5e5b"/><rect x="469" y="210" width="7" height="7" fill="#4b5e5b"/><rect x="476" y="210" width="7" height="7" fill="#4b5e5b"/><rect x="483" y="210" width="7" height="7" fill="#4b5e5b"/><rect x="490" y="210" width="7" height="7" fill="#4b5e5b"/><rect x="455" y="217" width="7" height="7" fill="#364543"/><rect x="462" y="217" width="7" height="7" fill="#364543"/><rect x="469" y="217" width="7" height="7" fill="#364543"/><rect x="476" y="217" width="7" height="7" fill="#364543"/><rect x="483" y="217" width="7" height="7" fill="#364543"/><text x="472.5" y="240" fill="#97a0a0" font-size="10" text-anchor="middle">4</text><rect x="572" y="161" width="7" height="7" fill="#c3a3c0"/><rect x="558" y="168" width="7" height="7" fill="#c3a3c0"/><rect x="572" y="168" width="7" height="7" fill="#dcc2da"/><rect x="586" y="168" width="7" height="7" fill="#c3a3c0"/><rect x="544" y="175" width="7" height="7" fill="#c3a3c0"/><rect x="558" y="175" width="7" height="7" fill="#dcc2da"/><rect x="565" y="175" width="7" height="7" fill="#dcc2da"/><rect x="572" y="175" width="7" height="7" fill="#c3a3c0"/><rect x="579" y="175" width="7" height="7" fill="#dcc2da"/><rect x="586" y="175" width="7" height="7" fill="#dcc2da"/><rect x="600" y="175" width="7" height="7" fill="#c3a3c0"/><rect x="537" y="182" width="7" height="7" fill="#c3a3c0"/><rect x="544" y="182" width="7" height="7" fill="#dcc2da"/><rect x="551" y="182" width="7" height="7" fill="#dcc2da"/><rect x="558" y="182" width="7" height="7" fill="#dcc2da"/><rect x="565" y="182" width="7" height="7" fill="#dcc2da"/><rect x="572" y="182" width="7" height="7" fill="#c3a3c0"/><rect x="579" y="182" width="7" height="7" fill="#dcc2da"/><rect x="586" y="182" width="7" height="7" fill="#dcc2da"/><rect x="593" y="182" width="7" height="7" fill="#dcc2da"/><rect x="600" y="182" width="7" height="7" fill="#dcc2da"/><rect x="607" y="182" width="7" height="7" fill="#c3a3c0"/><rect x="537" y="189" width="7" height="7" fill="#c3a3c0"/><rect x="544" y="189" width="7" height="7" fill="#dcc2da"/><rect x="551" y="189" width="7" height="7" fill="#dcc2da"/><rect x="558" y="189" width="7" height="7" fill="#dcc2da"/><rect x="565" y="189" width="7" height="7" fill="#dcae68"/><rect x="572" y="189" width="7" height="7" fill="#dcae68"/><rect x="579" y="189" width="7" height="7" fill="#dcae68"/><rect x="586" y="189" width="7" height="7" fill="#dcc2da"/><rect x="593" y="189" width="7" height="7" fill="#dcc2da"/><rect x="600" y="189" width="7" height="7" fill="#dcc2da"/><rect x="607" y="189" width="7" height="7" fill="#c3a3c0"/><rect x="544" y="196" width="7" height="7" fill="#dcc2da"/><rect x="551" y="196" width="7" height="7" fill="#dcc2da"/><rect x="558" y="196" width="7" height="7" fill="#dcc2da"/><rect x="565" y="196" width="7" height="7" fill="#dcae68"/><rect x="572" y="196" width="7" height="7" fill="#dcae68"/><rect x="579" y="196" width="7" height="7" fill="#dcae68"/><rect x="586" y="196" width="7" height="7" fill="#dcc2da"/><rect x="593" y="196" width="7" height="7" fill="#dcc2da"/><rect x="600" y="196" width="7" height="7" fill="#dcc2da"/><rect x="565" y="203" width="7" height="7" fill="#4f6360"/><rect x="572" y="203" width="7" height="7" fill="#4f6360"/><rect x="579" y="203" width="7" height="7" fill="#4f6360"/><rect x="551" y="210" width="7" height="7" fill="#4f6360"/><rect x="558" y="210" width="7" height="7" fill="#4f6360"/><rect x="565" y="210" width="7" height="7" fill="#4f6360"/><rect x="572" y="210" width="7" height="7" fill="#4f6360"/><rect x="579" y="210" width="7" height="7" fill="#4f6360"/><rect x="586" y="210" width="7" height="7" fill="#4f6360"/><rect x="593" y="210" width="7" height="7" fill="#4f6360"/><rect x="558" y="217" width="7" height="7" fill="#384846"/><rect x="565" y="217" width="7" height="7" fill="#384846"/><rect x="572" y="217" width="7" height="7" fill="#384846"/><rect x="579" y="217" width="7" height="7" fill="#384846"/><rect x="586" y="217" width="7" height="7" fill="#384846"/><text x="575.5" y="240" fill="#97a0a0" font-size="10" text-anchor="middle">5</text></svg>